<svg xmlns="http://www.w3.org/2000/svg" width="38" height="38"><path d="M405.589 2372.63a16.482 16.482 0 0 0-11.784-15.82v-2.45a2.359 2.359 0 0 0-2.35-2.37h-4.326a2.359 2.359 0 0 0-2.351 2.37v2.45a16.529 16.529 0 0 0-3.584 30.11l-.832 1.21a1.181 1.181 0 0 0 .963 1.86 1.177 1.177 0 0 0 .967-.51l1.047-1.52a16.11 16.11 0 0 0 11.905 0l1.047 1.52a1.171 1.171 0 0 0 1.636.3 1.192 1.192 0 0 0 .294-1.65l-.832-1.21a16.513 16.513 0 0 0 8.2-14.29Zm-18.46-18.27h4.326v1.96a15.67 15.67 0 0 0-4.326 0v-1.96Zm2.163 32.37a14.1 14.1 0 1 1 13.947-14.1 14.022 14.022 0 0 1-13.947 14.1Zm11.344-18.52a.775.775 0 0 0-1.012-.45.788.788 0 0 0-.45 1.02 10.575 10.575 0 1 1-9.882-6.85.79.79 0 0 0 0-1.58 12.249 12.249 0 1 0 11.344 7.86Zm-8.31-5.83a10.569 10.569 0 0 1 5.27 3.61.772.772 0 0 0 .615.3.746.746 0 0 0 .486-.17.8.8 0 0 0 .128-1.11 12.159 12.159 0 0 0-6.05-4.15.792.792 0 0 0-.975.53.8.8 0 0 0 .526.99Zm-4.4 10.25a1.362 1.362 0 1 0 1.362-1.37 1.372 1.372 0 0 0-1.358 1.37Zm2.145-3.41v-4.79a.784.784 0 1 0-1.567 0v4.79a.784.784 0 1 0 1.571 0Zm7.418 2.62h-4.74a.8.8 0 0 0 0 1.59h4.74a.8.8 0 0 0 .004-1.59Z" transform="translate(-370.297 -2352)" style="fill:#fff;fill-rule:evenodd"/></svg>